<svg width="264" height="264" viewBox="0 0 264 264" fill="none" xmlns="http://www.w3.org/2000/svg">
<path fill-rule="evenodd" clip-rule="evenodd" d="M36 0C16.1178 0 0 16.1177 0 36V228C0 247.882 16.1177 264 36 264L44.975 264V172.747C44.975 166.103 46.6301 159.564 49.7908 153.719L122.695 18.9151C127.089 10.7902 138.749 10.796 143.135 18.9251L218.269 158.179C219.843 161.096 220.667 164.36 220.667 167.675V264L228 264C247.882 264 264 247.882 264 228V36C264 16.1178 247.882 0 228 0H36ZM208.344 264V167.756L139.197 126.905V257.136V257.664C139.197 261.154 142.055 263.985 145.542 264M139.128 113.256V37.7204L199.61 148.157L142.032 114.206C142.032 114.206 141.174 113.735 140.58 113.546C140.029 113.371 139.128 113.256 139.128 113.256ZM176.088 260.304C182.358 260.304 187.44 254.276 187.44 246.84C187.44 239.404 182.358 233.376 176.088 233.376C169.819 233.376 164.736 239.404 164.736 246.84C164.736 254.276 169.819 260.304 176.088 260.304ZM188.496 178.498C188.496 175.272 191.112 172.656 194.338 172.656C197.565 172.656 200.181 175.272 200.181 178.498V219.455C200.181 222.682 197.565 225.298 194.338 225.298C191.112 225.298 188.496 222.682 188.496 219.455V178.498ZM175.832 161.568C172.62 161.568 170.016 164.172 170.016 167.384V209.276C170.016 212.488 172.62 215.091 175.832 215.091C179.044 215.091 181.648 212.488 181.648 209.276V167.384C181.648 164.172 179.044 161.568 175.832 161.568ZM151.869 158.234C151.869 154.972 154.513 152.328 157.774 152.328C161.036 152.328 163.68 154.972 163.68 158.234V200.3C163.68 203.561 161.036 206.205 157.774 206.205C154.513 206.205 151.869 203.561 151.869 200.3V158.234Z" fill="#CA4238"/>
</svg>
